<svg width="619" height="121" viewBox="0 0 619 121" xmlns="http://www.w3.org/2000/svg" xmlns:xlink="http://www.w3.org/1999/xlink"><title>scriptbees_final_logo-1</title><defs><path id="a" d="M29.751 60.733v60.207H.934V.526h28.817v60.207z"/><path id="c" d="M58.581.526H0V120.94h117.162V.526z"/></defs><g fill="none" fill-rule="evenodd"><g transform="translate(589)"><mask id="b" fill="#fff"><use xlink:href="#a"/></mask><path fill="#7BB541" mask="url(#b)" d="M.934.68l2.137 1.283 1.069.564 1.019.616.866.821.814.923.713.924.306.565.356.666.204.308.254.462.204.565.255.667.102.616.153.718.102.769.152.873.204 1.796.049 1.025.103 1.18.154 2.258.049 2.412v17.753l.154 4.156.103 1.898.15 1.847.204 1.694.255 1.642.203 1.18.357 1.18.408 1.077.509.975.508.821.612.821 1.273 1.437.662.564.764.513.815.462.916.359 1.883.615 1.986.462-1.12.154-1.121.36-1.118.41-1.069.563-1.019.515-.917.666-.917.718-.814.822-.764.769-.662.974-.611 1.028-.458 1.18-.459 1.18-.254 1.231-.154 1.282-.048 1.385-.156 2.361v6.208l-.049.72v2.256l-.052 1.437v7.286l-.102 5.9-.101 3.028v3.385l-.203 2.823-.204 1.231-.203 1.18-.357 1.027-.407 1.026-.153.206-.101.256-.204.512-.51.975-.611.771-.662.821-.713.717-.408.361-.356.409-.916.667-.968.719-1.019.616L.934 121l2.493-.36 2.649-.358 1.221-.257 1.274-.309 1.222-.358 1.221-.462 1.019-.563 1.017-.617.917-.668.459-.411.509-.357v-.155h.051l.101-.102.205-.205.407-.462.356-.513.408-.513.305-.616.153-.307.204-.257.611-1.232.356-.821.103-.462.152-.411.102-.512.102-.462.153-.924.101-.513.103-.462.152-1.025v-.566l.051-.512v-1.076l.051-.105v-1.332l.051-1.233.051-2.412V85.596l-.051-1.743v-1.695l-.051-1.743v-7.442l.102-2.05.151-1.028.256-.974.865-1.899.458-.974.611-.874.662-.819.865-.769.561-.617.713-.512.713-.462.866-.361 1.782-.666 1.984-.359-.864-.256-.763-.206-.764-.256-.662-.206-.713-.307-.611-.256-1.171-.565-1.071-.718-.508-.411-.408-.359-.764-.975-.56-1.077-.56-1.335-.458-1.487-.357-1.693-.253-1.848-.204-2.052-.051-1.129v-3.797l.153-2.874-.153-1.641-.051-1.642-.05-3.335v-7.235l-.051-3.129-.153-3.027-.153-2.976-.204-2.822-.305-1.334-.255-1.18-.357-1.129-.305-1.027-.458-1.077-.509-.872-.612-.873-.611-.718-1.12-.924-.662-.461-.713-.411-.765-.462-.814-.41-.865-.359-.865-.257-1.935-.461L5.159.68 3.02.526H1.951L.934.68"/></g><path fill="#5F5F5C" d="M234.069 23.41l-.561-.974-.661-.822-.916-.77-.51-.307-.509-.205-.56-.257-.509-.153-.612-.103h-.56l-1.222.103-1.069.41-1.018.512-.917.77-.662.822-.458.974-.458 1.077-.101 1.283.101 1.13.458 1.231.458.974.662.821.866.718 1.069.565 1.069.308.611.103.611.051.102-.051h.458l.612-.103.509-.155.254-.101.306-.052.509-.308.51-.257.203-.204.101-.103v-.052h.153l.204-.204.102-.103v-.052h.153l.305-.41.356-.411.255-.513.306-.461.306-1.231.101-.617.051-.513-.051-.667-.101-.616-.306-1.077m-22.811 18.317v-1.128l-.102-1.077-.102-.565-.153-.513-.255-.514-.356-.409-.815-.617-.916-.462-.559-.256-.612-.205-.662-.205-.764-.155-1.426-.102-1.374.051-1.375.103-1.273.308-1.476.359-1.324.564-1.375.514-1.324.666-1.018.565-1.07.77-1.935 1.744-.713.616-.763.666-1.528 1.232v-7.132h-3.869l-14.003 3.796v2.925h8.452v35.557l-8.146 2.155v2.926h26.273v-2.926l-8.707-2.257V48.039l.815-.668.815-.769.865-.821.916-.719 2.089-1.282.967-.461 1.069-.36.458-.154.51-.051.967.051.764.052.917.307.661.257.764.461.866.411 1.018.667.611.308.764.308 1.629.307.866-.051.916-.051.815-.257.814-.308.407-.308.459-.307.153-.205.203-.154.153-.205.204-.155.306-.461.254-.514.051-.307.102-.257.102-.616m4.43.514h8.146v36.582l-8.249 2.259v2.822h25.511v-2.926L233 78.927V36.545l-17.312 1.796v3.9m46.793 4.874l.458-.565.306-.359.407-.308.764-.769.407-.411.509-.359 1.069-.718 1.274-.667 1.12-.718 1.323-.616 1.324-.616 1.375-.307 1.222-.308 1.375-.053.611-.05.611.05.56.053.611.205 1.171.41 1.069.462 1.019.513.968.616.865.666.865.771.764.871.764 1.027.56 1.077.561 1.283.203.668.255.769.458 1.59.153.77.204.872.305 1.847.102.975.153 1.077.254 2.31.05 1.539-.05 1.539-.103 1.54-.151 1.539-.306 1.487-.204.718-.101.36-.052.411-.407 1.386-.458 1.437-.357.614-.305.667-.713 1.231-.407.566-.357.614-.815 1.078-.508.462-.255.206-.204.256-.56.409-.509.462-.611.31-.306.152-.254.206-1.223.616-.712.307-.713.257-.763.205-.408.052-.357.103-1.527.051-1.527.051-1.528-.205-1.426-.359-1.374-.411-1.223-.411-1.273-.513-1.069-.462-.967-.563-.815-.513-.713-.462-.458-.36-.356-.359-.103-.205v-27.45l.103-.154.101-.257.255-.205zm-18.331-6.67v2.874h8.605v57.568l-8.146 2.205v2.873h26.681v-2.873l-9.165-2.462V80.158l.814.462.917.512 1.935.924 3.971 1.538 3.055.668 1.426.205 1.528.155.712-.051h.764l.713-.053h.764l.712-.152.764-.104.713-.206.357-.101.407-.051.611-.257.713-.205 1.476-.565 1.528-.719 1.63-.819 1.323-.924 1.324-.975 1.324-1.181 1.323-1.334.815-1.18.407-.614.204-.31.102-.152.153-.104.407-.719.408-.667.356-.718.357-.718.611-1.694.662-1.743.102-.514v-.154l.05-.103.102-.203.254-.924.204-1.027.254-1.026v-.462l.052-.102.101-.514.153-1.026.102-1.077.051-1.027-.051-1.128-.102-1.027-.306-2.154-.254-1.745-.356-1.693-.509-1.642-.56-1.642-.764-1.693-.764-1.54-1.019-1.59-1.069-1.488-.967-1.129-.407-.411-.051-.05-.102-.103-.509-.513-2.343-1.797-.967-.563-.916-.462-1.834-.77-1.934-.616-1.833-.41-1.936-.308-1.934-.052-1.884.052-1.782.308-1.681.41-1.527.616-1.578.615-1.477.822-1.477.872-1.323 1.129-1.273 1.128-1.172 1.232v-6.157h-3.767l-14.258 3.797zm-94.757-.822l.509.103.56.206.509.205.56.308.662.41.713.565.662.667.56.718.916 1.437.204.718.051.308v.308l-.153.564-.102.719-.152.718-.051.821v.821l.203.924.102.359.204.461.509.975.51.513.815.565.864.409.968.309.458.051h.509l.51-.051.56-.103.458-.206.509-.256.204-.205.101-.102v-.052h.153l.459-.41.305-.514.306-.462.56-1.025.254-1.232.102-1.231-.05-.821-.102-.77-.204-.821-.153-.41-.102-.359-.407-.771-.407-.665-.51-.668-.56-.564-.763-.77-.764-.667-.815-.616-.814-.512-.968-.617-.916-.513-1.019-.512-.967-.411-1.121-.513-1.069-.411-1.17-.359-1.121-.205-2.394-.36-2.291-.154-3.054.052-2.954.462-2.953.667-2.903 1.077-1.323.565-1.222.667-1.222.769-1.171.873-1.171.974-.968 1.129-.967 1.232-.815 1.386-.814 1.539-.713 1.642-.611 1.642-.459 1.795-.407 1.642-.255 1.693-.254 1.745-.103 1.795.052 2.258.153 2.258.05 1.077.153 1.129.509 2.155.561 2.053.865 2.103.459.924.61.975.611.924.764.974 1.477 1.693.764.82.865.822 1.731 1.437 1.884 1.281 1.578.822 1.681.719 1.782.513 1.884.306 2.394.361 2.545.205 2.343-.051 2.341-.053 1.172-.152 1.222-.206 1.272-.36 1.324-.461 1.325-.616 1.323-.667 1.222-.717 1.273-.823 2.037-1.538.203-.257.255-.205.509-.411.866-.82v-.154h.051l.101-.102.204-.206.408-.411.305-.461.357-.411.509-.924.204-.513.101-.257.153-.205-2.75-1.693-.458.564-.458.667-.661.667-.612.823-1.528 1.538-.865.718-.917.718-1.017.77-1.019.667-1.121.565-1.069.513-1.222.358-.61.155-.561.206-1.375.101h-1.324l-1.221-.101-1.172-.156-1.171-.205-1.12-.257-1.12-.357-1.069-.462-1.07-.565-.967-.616-.967-.768-.815-.873-.815-.924-.713-.975-.764-1.129-.611-1.18-.611-1.334-.457-1.384-.561-1.951-.254-1.026-.153-1.026-.204-1.18-.102-1.18-.153-2.464.052-2.257.05-1.231.153-1.18.306-2.566.509-2.514.559-2.154.815-2.001.357-1.027.509-.924 1.171-1.692 1.223-1.386 1.374-1.13.764-.462.814-.358.866-.257.968-.103 2.087-.359 1.069-.05 1.172.05 1.119.052 1.223.307"/><mask id="d" fill="#fff"><use xlink:href="#c"/></mask><path fill="#5F5F5C" mask="url(#d)" d="M86.51 19.87l1.17.052 1.222.204 1.121.206 1.171.359 2.036.718 2.088 1.027 1.68.923 1.732 1.231 1.731 1.283 1.883 1.437 7.435 8.311 2.698-1.231-5.957-17.393h-3.462l-1.019 3.232-1.935-.872-1.731-.718-3.513-1.489-1.834-.564-1.832-.41-1.019-.256-.967-.155-1.019-.154-.967-.051-3.259-.154-3.207.052-1.63.05-1.578.257-3.004.77-2.597.974-2.394 1.284-1.222.769-1.119.924-1.07.975-.916 1.128-.815.975-.662 1.129-.56 1.18-.458 1.334-.458 1.283-.357 1.333-.254 1.386-.052 1.437.102 2.103.357 2.155.204 1.026.356 1.078.968 2.155.457.719.662.82.713.719.866.821.917.718 1.068.77 1.07.667 1.171.718 2.496 1.18 2.698 1.078 1.375.512 1.425.462 1.426.411 1.477.359 2.596.616 2.699.565 2.648.564 2.8.718 2.546.667 2.647.77 1.273.41 1.325.514 2.647 1.231.662.358.662.462.56.513.612.668.509.615.508.718.408.719.356.77.255.768.203.873.153.924.051 1.026-.051.974-.153 1.078-.254 1.13-.255 1.18-.305.82-.357.822-.407.82-.254.411-.204.462-.611.82-.611.821-.713.77-.407.358-.357.412-.815.616-.865.614-.916.565-.917.564-.56.206-.509.256-1.07.411-1.119.308-1.121.255-2.139.257-1.119.104-1.07.101h-2.241l-1.171-.101-1.171-.104-1.222-.204-.611-.154-.56-.104-1.221-.358-.612-.205-.305-.102-.102-.052h-.153l-1.222-.462-1.171-.565-1.222-.667-1.12-.667-1.222-.82-1.121-.822-1.068-.871-.917-.822-1.935-1.949-.917-1.025-.815-.975-1.629-2.157-1.527-2.205-1.477-2.31-1.272-2.308-3.515.565L64.971 83.8h4.022l1.375-4.617 2.598 1.437.61.358.662.411 1.324.667 3.564 1.538.408.104.203.052.255.103.917.256 1.73.409 1.069.104 1.121.153 2.138.258.968.101 1.018.156 2.037.152 1.986-.101 2.139-.207 2.087-.306 1.018-.257 1.121-.309 2.392-.82 2.496-1.027 1.12-.615 1.222-.668 1.171-.717 1.222-.77.917-.822.203-.256.255-.205.509-.409.865-.924.866-.924.764-1.129.153-.307.204-.257.407-.515.306-.614.152-.31.204-.256.661-1.127.306-.873.306-.923.101-.513v-.154l.153-.308.306-1.027.203-1.128.204-1.078.102-1.129.051-1.128-.051-.616v-.564l-.102-1.129-.204-1.18-.203-1.129-.357-1.181-.356-1.077-.459-1.077-.559-.924-.713-1.027-.764-.923-.815-.872-.815-.769-.967-.77-.967-.667-1.018-.667-1.019-.514-1.121-.615-1.17-.513-2.444-.873-2.597-.82-2.699-.719-3.055-.769-3.055-.668-3.157-.718-3.055-.666-1.375-.36-1.324-.41-2.494-.924-1.325-.565-1.222-.615-1.221-.718-1.121-.769-1.018-.822-1.019-.872-.508-.565-.408-.564-.356-.616-.255-.616-.305-.769-.153-.77-.102-.821v-.821l.051-.924.153-.922.254-1.027.459-1.026.458-.872.56-.77.611-.719.764-.615.763-.615.866-.513.866-.514 1.018-.41 1.935-.667 2.139-.462 2.138-.307 2.241-.052"/><path fill="#7BB541" mask="url(#d)" d="M14.817 4.785l-.662.718-.56.873-.51.872-.407 1.077-.763 2.156-.305 1.18-.204 1.334-.255 2.822-.102 2.976-.152 3.027v10.364l-.051 1.642-.051.821v.872l-.102 1.642-.051 1.641v1.438l.051 1.436v2.617l-.051.103v2.206l-.102 2.052-.306 1.848-.305 1.231-.051.205v.257l-.254.718-.204.769-.509 1.335-.357.512-.305.565-.204.205-.102.103h-.051v.154l-.356.513h-.152v.051l-.102.102-.204.206-.458.411-.51.359-.509.359-.611.256-.611.309-.357.101-.305.155-.662.307-.763.206-.713.256-.815.206-.408.102-.203.051-.153.103.968.103.967.256.916.257.917.409.815.361.764.462.661.512.662.617.765.769.711.819.561.874.56.974.407.924.357.975.255.974.254 1.028v3.027l.051 1.026v1.898l.051 1.847-.102 3.437v19.344l.102 2.565v1.181l.051 1.078.102 1.025.254.975.102.924.255.974.255.873.407.821.508 1.232.662 1.18.714 1.026.865.924.917.768.968.668 1.017.617 1.07.563 1.171.462 1.222.358 1.222.309 1.324.257 2.546.358.61.053.662.102 1.325.205-2.19-1.334-.967-.719-.815-.667-.866-.77-.713-.717-.662-.821-.56-.771-.56-.975-.407-.974-.407-1.026-.305-1.027-.306-1.18-.153-1.231-.153-1.386-.051-1.437-.05-1.793v-4.62l-.102-5.9v-5.799l-.103-2.924v-6.925l-.05-1.13v-1.129l-.102-2.361-.102-1.385-.153-1.282-.305-1.231-.357-1.18-.56-1.18-.561-1.028-.661-.974-.712-.769-.866-.822-.917-.718-.967-.666-.968-.515-1.119-.563-.561-.256-.509-.154-1.12-.36-1.07-.154 1.935-.462 1.935-.615.814-.359.815-.462.764-.513.713-.564.611-.719.662-.718.56-.821.611-.821.408-.975.407-1.077.611-2.36.204-1.642.203-1.694.051-.923.102-.924v-.77l.051-.205.102-.923v-1.078l.153-3.078v-3.233l.051-1.026V18.279l.152-2.258.102-2.205.255-1.796.203-1.642.357-1.334.153-.667.203-.565.56-.77.611-1.231.713-.924.815-.923.917-.821 2.036-1.18L28.871.68l-2.19-.154-2.036.154-2.14.36-1.832.461-.967.257-.815.359-1.528.872-1.425.872-1.121.924"/><path d="M479.441 43.523l.509-.616.56-.512 1.12-.873 1.579-.975 1.732-.666 1.63-.359.812-.103h1.681l.866.103.815.101.866.258.713.256.763.359 1.529.924.509.307.509.462.458.462.508.615.458.565.407.615.357.668.305.769.458 1.437.358 1.437.051.718.101.769.051 1.438h-22.811l-.101-1.438.051-.718.204-.666.509-1.437.661-1.385.763-1.283 1.019-1.232zm25.511-.923l-1.222-1.335-1.273-1.18-.764-.615-.713-.462-.765-.462-.713-.359-.917-.513-.916-.411-.967-.359-.966-.256-2.037-.513-2.037-.308-1.936-.154-1.986.051-2.035.103-1.935.359-1.986.411-1.885.564-1.884.769-1.68.975-1.679 1.027-1.478 1.231-1.375 1.334-.662.718-.559.822-.765.974-.662 1.078-1.169 2.309-1.019 2.411-.407 1.232-.306 1.334-.407 2.308-.153 2.412-.102 2.411.203 2.463.713 3.54.459 1.694.662 1.745.663 1.59.761 1.591.866 1.436 1.019 1.283 1.477 1.694.814.82.917.821.917.719.916.667 1.934 1.231 1.069.564 1.172.513 1.171.462 1.273.359 1.172.308 1.222.256 1.222.155 1.221.101h2.648l2.648-.205 2.648-.513.612-.206.303-.101v-.051h.357l1.324-.36 1.12-.513 1.171-.513 1.07-.616 1.121-.563 1.018-.668.203-.205.103-.102v-.052h.152l.51-.308.407-.41.203-.205.103-.104v-.051h.152l.814-.768 1.12-1.232.509-.616.458-.616.357-.719.306-.614.407-1.284-3.157-1.539-.255.513-.255.615-.355.667-.458.771-.356.307-.306.359-.611.718-.713.617-.713.667-1.885 1.386-1.018.563-.968.513-1.069.462-1.017.36-1.069.256-.866.206h-2.139l-1.019-.052-.917-.053-.966-.152-.867-.205-.814-.257-.763-.308-1.476-.616-.663-.359-.56-.358-1.222-.873-1.121-.924-1.782-2.257-1.681-2.309-.662-1.231-.507-1.283-.305-.719-.204-.667-.205-.77-.101-.717-.458-2.567-.102-1.281v-1.129l-.051-1.592v-1.487l.051-1.437.203-1.129h33.657l.05-.821v-.821l-.204-1.59-.356-1.642-.458-1.539-.662-1.796-.764-1.642-1.069-1.642-1.119-1.539zm12.321 6.363l.051 1.743.152.821.255.924.255.821.407.821.458.769.561.77.866.975 1.018.923 1.171.77 1.274.77.609.308.713.359 1.477.718 1.477.513 1.629.565 3.361.974 3.309.924 1.63.411 1.68.41 3.156.719 1.375.41 1.273.461 1.07.462.967.566.764.512.662.564.561.616.508.668.255.614.255.667.153.668.05.769-.05.719-.102.717-.306 1.54-.101.154-.051.205-.153.411-.204.358-.204.412-.305.308-.102.051-.153.308-.357.307-.305.36-1.528 1.025-.866.36-.967.462-1.732.462-1.73.359-1.782.05h-1.579l-1.12-.05-1.12-.102-1.172-.206-.61-.154-.559-.102-2.343-.822-2.241-.975-1.884-1.129-1.783-1.333-.863-.771-.816-.82-1.476-1.744-.51-.667-.407-.617-.764-1.332-.662-1.592-.306-.821-.203-.77h-3.31l3.106 17.395h3.157l1.274-3.9 2.341 1.078.56.307.611.36 1.222.615 2.547 1.078 1.171.308 1.324.205.915.101 1.07.104 1.069.052 1.172.101h2.24l2.343-.051 1.984-.307 2.037-.361.968-.306.968-.308.916-.411.866-.411 1.936-1.231 1.831-1.231.815-.667.815-.719.712-.768.713-.823.51-.871.509-.924.458-1.027.408-1.076.102-.616.05-.308.102-.256.153-1.231.051-1.335v-1.078l.051-.307-.152-1.282-.255-1.181-.357-1.078-.458-.975-.56-.974-.612-.822-.662-.769-.713-.616-1.375-.974-1.424-.77-1.324-.668-1.324-.512-1.273-.462-1.07-.308-.917-.308-.61-.153-.917-.359-.917-.257-1.934-.462-2.037-.461-2.037-.36-1.985-.411-1.885-.41-1.832-.513-.865-.307-.764-.257-1.579-.77-.713-.462-.611-.41-.662-.565-.458-.564-.408-.616-.254-.615-.255-.821-.153-.718-.051-.822.102-.718.152-.77.306-.718.407-.718.561-.616.509-.513.662-.41.764-.412.866-.358.866-.36.968-.204 1.069-.155h3.258l2.088.257 2.037.462.967.308 1.018.41 1.731.77.814.462.866.564.764.513.814.616.713.667.765.769.509.565.611.667.458.718.51.821.458.718.458.821v.051l.052.103.101.206.203.41v.051l.052.103.1.205.204.411h3.055l-3.055-14.726h-2.596l-1.018 3.233-1.274-.873-1.324-.769-1.477-.77-1.577-.565-1.884-.564-1.884-.359-1.884-.308-1.783-.103-2.596.103-1.273.154-1.171.256-2.394.565-2.189.821-1.019.411-.917.512-.915.565-.814.666-1.58 1.386-.712.77-.612.923-.916 1.488-.713 1.591-.255.769-.153.821-.152.77-.051.822m-75.715-9.082l1.527.615 1.529.924 1.018.769.458.462.51.615.815 1.18.356.668.356.769.458 1.437.357 1.437.052.718.101.769v1.438h-22.812l-.051-1.438.051-.718.204-.666.458-1.437.714-1.385.763-1.283 1.019-1.232 1.018-1.128 1.119-.873 1.63-.975 1.68-.666.815-.258.866-.101.814-.103h.867l1.629.103.813.101.866.258zm4.125-3.233l-2.037-.513-1.019-.206-.967-.102-1.985-.154-1.986.051-1.986.103-1.935.359-1.986.411-1.883.564-1.884.769-1.732.975-1.68 1.027-1.478 1.231-1.375 1.334-.66.718-.56.822-.764.974-.662 1.078-1.171 2.309-.968 2.411-.407 1.232-.306 1.334-.407 2.308-.153 2.412-.102 2.411.204 2.463.254 1.744.459 1.796 1.07 3.439.662 1.59.763 1.591.917 1.436.967 1.283.712.821.815.873.815.82.916.821.866.719.917.667 1.986 1.231 1.069.564 1.172.513 1.17.462 1.272.359 1.172.308 1.222.256 1.222.155 1.222.101h2.598l2.697-.205.611-.153.662-.104 1.325-.256.611-.206.306-.101v-.051h.356l1.323-.36 1.172-.513 1.17-.513 1.069-.616.509-.308.102-.101v-.053h.153l.306-.101 1.018-.668.203-.205.103-.102v-.052h.152l.51-.308.407-.41.203-.205.103-.104v-.051h.152l.408-.41.204-.206.101-.102v-.05h.154l1.12-1.232.917-1.232.66-1.333.407-1.284-3.104-1.539-.255.513-.255.615-.407.667-.458.771-.357.307-.306.359-.611.718-.713.617-.713.667-.917.667-.967.719-1.017.563-.917.513-1.12.462-.968.36-1.069.256-.917.206h-2.139l-1.018-.052-.865-.053-.966-.152-.867-.205-.814-.257-.765-.308-1.476-.616-.662-.359-.561-.358-1.272-.873-1.07-.924-1.781-2.257-.917-1.18-.815-1.129-.611-1.231-.559-1.283-.459-1.386-.357-1.487-.407-2.567-.102-1.281v-1.129l-.102-1.592v-1.487l.102-1.437.153-1.129h33.707V53.99l-.204-1.59-.355-1.642-.458-1.539-.611-1.796-.815-1.642-1.07-1.642-1.069-1.539-1.273-1.335-1.273-1.18-.713-.615-.713-.462-.765-.462-.761-.359-.917-.513-.916-.411-.968-.359-.968-.256zm-66.092 13.033h1.071l1.272.101h1.223l1.373.155 1.172.103 1.069.154 2.444.461 1.12.359 1.172.462 1.019.565.966.718.916.718.713.872.459.719.508.82.408.822.408.923.305.924.254.974.204.975.153 1.027.102 2v2.053l-.153.923-.203.975-.255.924-.306.924-.356.717-.204.361-.153.409-.407.719-.408.77-.458.615-.255.309-.203.358-1.119 1.231-.815.616-.815.615-.865.515-.866.513-.56.205-.51.257-.559.205-.51.257-.611.152-.56.206-.611.154-.561.205-2.137.359-1.121.103h-.458l-.101.051-.51.103-1.12.103-1.069.102-1.121.05h-.56l-.51.053-4.479-.36-4.431-.462-.815-.205-.662-.205-.662-.257-.558-.256-.561-.409-.407-.411-.357-.462-.254-.411-.357-.564-.254-.565-.204-.615-.101-.617-.154-.768-.051-.719-.05-1.436V49.681h17.056zm7.434-26.989l.968.308.917.41.763.411.764.513.611.41.612.513.56.564.56.667.408.565.405.667.612 1.385.814 2.822.102.821.051.924-.051.872-.102.923-.407 1.643-.102.153-.052.206-.101.411-.306.821-.407.718-.405.718-.51.666-.458.719-.662.513-.611.513-.713.462-.662.411-2.139.821-1.223.359-1.12.359-1.172.256-1.067.206-1.069.102-.917.052h-18.381V27.412l.05-1.18.306-1.077.458-1.078.866-.923.56-.411.661-.36.764-.358.917-.308.916-.308 1.172-.205 1.272-.154 1.478-.051 1.883-.155h1.934l1.885.052 1.934.256 1.834.154 1.884.359 1.832.462 1.884.565zm3.515-4.874l-2.394-.462-2.292-.103h-42.108v2.719l8.808 2.361v56.285L344 80.877v3.027h39.513l.203-.051h.356l.356-.053h.56l.51-.102.662-.051 1.527-.205.815-.205.916-.155.917-.205 1.019-.154 1.934-.565 2.037-.564 2.495-.974 2.343-.975 2.037-1.283.915-.719.814-.718.408-.461.204-.257.254-.205.153-.308.611-.77.357-.616.153-.307.203-.256.306-.616.305-.565.51-1.334.509-1.282.255-1.437.101-.719v-.359h.051l.103-.307.05-.822.102-.769.051-.822v-.769h.051l-.153-1.591-.204-1.538-.306-1.54-.407-1.436-.305-.77-.306-.667-.357-.667-.356-.565-.713-.975-.764-.872-.814-.821-.866-.666-1.934-1.386-1.018-.616-1.019-.513-3.769-1.385-3.868-.873 1.375-.513 1.526-.512 1.579-.514.713-.308.152-.102.204-.052.407-.102.765-.411.814-.41.051-.102.102-.053.204-.102.407-.205.816-.411.712-.564.663-.615.559-.719.253-.41.306-.359.407-.924.459-.923.152-.513.204-.462.408-.976.255-1.128.152-1.026.051-1.129.05-1.026-.101-1.334-.152-1.232-.255-1.231-.357-1.18-.611-1.232-.662-1.128-.865-1.078-.865-.923-1.375-1.18-1.477-1.078-.866-.514-.815-.41-1.731-.718-1.121-.513-1.118-.359-1.172-.36-1.17-.204z" fill="#7BB541"/><path fill="#5F5F5C" d="M313.296 31.106l-.865 1.13-.815 1.128-.306.205-.152.103-.102.154-.51.461-1.119.822-.356.102-.306.154-.611.308-1.323.513-.815.154-.408.051-.356.103-.815.103h-.764v3.181h7.74v34.685l.152 1.847.56 1.846.663 1.233.967 1.231 1.07.974 1.272.821 1.324.717.306.105h.051l.102.051.203.103.712.203 1.121.259 1.12.307 2.393.257 1.375.05 1.426-.05 1.427-.155 1.474-.206.612-.152.662-.104 1.222-.307 1.629-.616.713-.359.917-.512.204-.155.254-.102.51-.205.814-.667.409-.361.201-.204.102-.103v-.051h.153v-.051l.101-.053.713-.769.459-.614.203-.309.103-.153.152-.104-2.442-2-1.223 1.076-.764.566-.611.615-1.018.565-.968.513-.968.462-.916.357h-.356l-.306.053-.611.103-1.323.101-.713-.05-.611-.102-1.171-.31-.866-.409-.407-.256-.357-.309-.763-.718-.357-.462-.255-.462-.611-1.181-.458-1.23-.306-1.335-.05-1.231V39.778h13.952v-3.336h-13.952V18.331h-4.277l-.051 1.385-.153 1.54-.458 2.873-.458 1.847-.153.41-.102.462-.255.924-.407.82-.204.411-.102.205-.05.103v.154l-.458.82-.409.821"/></g></svg>